<svg width="125" height="25" viewBox="0 0 125 25" fill="none" xmlns="http://www.w3.org/2000/svg">
<path d="M8.768 18.76L7.064 15.688V20.056L2.936 20.416L0.536 19.216V0.975999L6.56 0.447999C6.688 0.431999 6.808 0.423999 6.92 0.423999C7.048 0.423999 7.168 0.423999 7.28 0.423999C8.208 0.423999 9.104 0.567999 9.968 0.855999C10.832 1.144 11.608 1.568 12.296 2.128C12.984 2.688 13.528 3.368 13.928 4.168C14.328 4.952 14.528 5.848 14.528 6.856C14.528 9.4 13.6 11.232 11.744 12.352L15.8 19.576L11.168 19.96L8.768 18.76ZM9.008 11.056C10 10.512 10.728 9.792 11.192 8.896C11.656 8 11.888 6.92 11.888 5.656C11.888 4.168 11.472 2.968 10.64 2.056C9.824 1.128 8.672 0.663999 7.184 0.663999C7.088 0.663999 6.992 0.663999 6.896 0.663999C6.8 0.663999 6.696 0.671999 6.584 0.688L0.776 1.192V18.976L4.424 18.664V12.328L5.456 12.232L8.888 18.52L12.992 18.16L9.008 11.056ZM4.424 4.336L6.008 4.192H6.272C6.8 4.192 7.24 4.352 7.592 4.672C7.96 4.976 8.144 5.512 8.144 6.28C8.144 7.08 7.952 7.704 7.568 8.152C7.184 8.584 6.664 8.832 6.008 8.896L4.424 9.04V4.336ZM7.064 8.296C7.624 7.896 7.904 7.224 7.904 6.28C7.904 6.168 7.896 6.064 7.88 5.968C7.88 5.872 7.872 5.776 7.856 5.68L7.064 5.752V8.296ZM28.7681 15.784C28.3361 17.128 27.6961 18.216 26.8481 19.048C26.0161 19.88 24.8801 20.36 23.4401 20.488C23.2641 20.504 23.0881 20.512 22.9121 20.512C22.7521 20.528 22.5841 20.536 22.4081 20.536C21.0161 20.536 19.7601 20.248 18.6401 19.672C17.5361 19.112 16.6561 18.264 16.0001 17.128C15.3441 15.992 15.0161 14.584 15.0161 12.904C15.0161 11.432 15.2641 10.16 15.7601 9.088C16.2721 8.016 16.9601 7.176 17.8241 6.568C18.7041 5.944 19.7041 5.584 20.8241 5.488C20.9361 5.472 21.0481 5.464 21.1601 5.464C21.2881 5.464 21.4081 5.464 21.5201 5.464C22.4161 5.464 23.2961 5.624 24.1601 5.944C25.0401 6.248 25.8321 6.728 26.5361 7.384C27.2561 8.04 27.8241 8.888 28.2401 9.928C28.6721 10.952 28.8881 12.184 28.8881 13.624C28.8881 13.752 28.8881 13.888 28.8881 14.032C28.8881 14.16 28.8801 14.288 28.8641 14.416L26.3441 14.632L28.7681 15.784ZM23.1041 13.936C22.9601 14.48 22.6961 14.928 22.3121 15.28C21.9281 15.632 21.4321 15.84 20.8241 15.904H20.6321C20.0881 15.904 19.6401 15.704 19.2881 15.304C18.9361 14.904 18.7601 14.352 18.7601 13.648L26.2241 13C26.2401 12.84 26.2481 12.688 26.2481 12.544C26.2481 12.384 26.2481 12.232 26.2481 12.088C26.2481 10.072 25.8161 8.504 24.9521 7.384C24.0881 6.264 22.8961 5.704 21.3761 5.704C21.2961 5.704 21.2081 5.704 21.1121 5.704C21.0321 5.704 20.9441 5.712 20.8481 5.728C19.7761 5.808 18.8161 6.152 17.9681 6.76C17.1201 7.352 16.4561 8.168 15.9761 9.208C15.4961 10.248 15.2561 11.48 15.2561 12.904C15.2561 14.968 15.7201 16.512 16.6481 17.536C17.5761 18.56 18.8081 19.072 20.3441 19.072C20.4561 19.072 20.5681 19.072 20.6801 19.072C20.7921 19.072 20.9041 19.064 21.0161 19.048C22.3921 18.936 23.4801 18.488 24.2801 17.704C25.0961 16.92 25.6801 15.944 26.0321 14.776L23.1041 13.936ZM18.8801 10.96C18.8801 10.432 19.0641 9.976 19.4321 9.592C19.8001 9.208 20.2721 8.992 20.8481 8.944H21.0641C21.5441 8.944 21.9361 9.088 22.2401 9.376C22.5601 9.648 22.7201 10.064 22.7201 10.624L18.8801 10.96ZM20.8241 15.136C20.8241 15.216 20.8561 15.296 20.9201 15.376C21.0001 15.456 21.0801 15.536 21.1601 15.616C21.4481 15.536 21.6721 15.44 21.8321 15.328C21.9921 15.216 22.1281 15.104 22.2401 14.992L20.8241 15.136ZM35.7526 18.904V11.392C35.5606 11.584 35.4406 11.808 35.3926 12.064V20.032L31.7686 20.392L29.3686 19.192V6.016L33.0406 5.68L33.8086 6.304C34.0806 6.08 34.3766 5.88 34.6966 5.704C35.0166 5.512 35.4006 5.4 35.8486 5.368C35.9286 5.368 36.0006 5.368 36.0646 5.368C36.1286 5.352 36.1926 5.344 36.2566 5.344C36.9766 5.344 37.6806 5.472 38.3686 5.728C39.0726 5.984 39.6966 6.344 40.2406 6.808C40.8006 7.256 41.2406 7.784 41.5606 8.392C41.8966 9 42.0646 9.656 42.0646 10.36V19.744L38.1526 20.08L35.7526 18.904ZM39.4246 8.776C39.4246 7.672 39.1206 6.864 38.5126 6.352C37.9206 5.84 37.1846 5.584 36.3046 5.584C36.2406 5.584 36.1686 5.584 36.0886 5.584C36.0246 5.584 35.9526 5.592 35.8726 5.608C35.0886 5.672 34.4246 5.976 33.8806 6.52C33.3366 7.048 33.0006 7.664 32.8726 8.368H32.8006V5.944L29.6086 6.232V18.952L33.0406 18.64V10.84C33.1206 10.456 33.2966 10.104 33.5686 9.784C33.8566 9.464 34.2246 9.28 34.6726 9.232H34.7686C35.1046 9.232 35.3926 9.352 35.6326 9.592C35.8726 9.816 35.9926 10.192 35.9926 10.72V18.64L39.4246 18.328V8.776ZM50.8738 20.464C50.7138 20.48 50.5458 20.488 50.3698 20.488C50.2098 20.504 50.0418 20.512 49.8658 20.512C48.4258 20.512 47.1538 20.216 46.0498 19.624C44.9458 19.032 44.0818 18.168 43.4578 17.032C42.8498 15.88 42.5458 14.496 42.5458 12.88C42.5458 11.616 42.7538 10.448 43.1698 9.376C43.6018 8.288 44.2498 7.392 45.1138 6.688C45.9938 5.984 47.0978 5.576 48.4258 5.464C48.5538 5.448 48.6818 5.44 48.8098 5.44C48.9378 5.44 49.0658 5.44 49.1938 5.44C50.2178 5.44 51.1778 5.624 52.0738 5.992C52.9858 6.36 53.7858 6.88 54.4738 7.552C55.1778 8.224 55.7298 9.032 56.1298 9.976C56.5298 10.904 56.7298 11.936 56.7298 13.072C56.7298 14.336 56.5138 15.512 56.0818 16.6C55.6658 17.672 55.0258 18.552 54.1618 19.24C53.2978 19.928 52.2018 20.336 50.8738 20.464ZM48.4498 19.024C49.7298 18.912 50.7858 18.52 51.6178 17.848C52.4498 17.176 53.0658 16.32 53.4658 15.28C53.8818 14.224 54.0898 13.088 54.0898 11.872C54.0898 10.704 53.9058 9.656 53.5378 8.728C53.1858 7.8 52.6338 7.064 51.8818 6.52C51.1458 5.96 50.2018 5.68 49.0498 5.68C48.9538 5.68 48.8578 5.68 48.7618 5.68C48.6658 5.68 48.5618 5.688 48.4498 5.704C47.1698 5.816 46.1058 6.216 45.2578 6.904C44.4258 7.576 43.8018 8.432 43.3858 9.472C42.9858 10.512 42.7858 11.648 42.7858 12.88C42.7858 14.032 42.9698 15.08 43.3378 16.024C43.7058 16.952 44.2658 17.688 45.0178 18.232C45.7698 18.776 46.7138 19.048 47.8498 19.048C47.9458 19.048 48.0418 19.048 48.1378 19.048C48.2338 19.048 48.3378 19.04 48.4498 19.024ZM48.2338 15.712C47.6418 15.712 47.1778 15.456 46.8418 14.944C46.5218 14.432 46.3618 13.64 46.3618 12.568C46.3618 11.448 46.5458 10.608 46.9138 10.048C47.2818 9.472 47.7938 9.152 48.4498 9.088H48.6658C49.2578 9.088 49.7138 9.344 50.0338 9.856C50.3538 10.352 50.5138 11.128 50.5138 12.184C50.5138 13.304 50.3298 14.16 49.9618 14.752C49.6098 15.328 49.1058 15.648 48.4498 15.712H48.2338ZM49.1458 15.256C49.8978 14.84 50.2738 13.816 50.2738 12.184C50.2738 11.624 50.2258 11.144 50.1298 10.744C49.7138 10.808 49.4178 11.096 49.2418 11.608C49.0818 12.104 49.0018 12.824 49.0018 13.768C49.0018 14.344 49.0498 14.84 49.1458 15.256ZM64.0985 19.288V1.048L69.0905 0.615999C69.2985 0.599999 69.4985 0.592 69.6905 0.592C69.8825 0.576 70.0585 0.568 70.2185 0.568C71.0985 0.568 71.8825 0.671999 72.5705 0.879999C73.2745 1.088 74.0425 1.392 74.8745 1.792C75.9945 2.304 76.9065 2.936 77.6105 3.688C78.3145 4.424 78.8345 5.336 79.1705 6.424C79.5065 7.496 79.6745 8.808 79.6745 10.36C79.6745 12.392 79.3305 14.104 78.6425 15.496C77.9705 16.888 77.0425 17.96 75.8585 18.712C74.6745 19.448 73.3065 19.888 71.7545 20.032L66.4985 20.488L64.0985 19.288ZM69.3305 18.616C70.8345 18.488 72.1625 18.056 73.3145 17.32C74.4825 16.584 75.3945 15.536 76.0505 14.176C76.7065 12.816 77.0345 11.144 77.0345 9.16C77.0345 6.44 76.4505 4.368 75.2825 2.944C74.1305 1.52 72.4185 0.808 70.1465 0.808C69.9865 0.808 69.8185 0.816 69.6425 0.831999C69.4665 0.831999 69.2905 0.839999 69.1145 0.855999L64.3385 1.264V19.024L69.3305 18.616ZM67.9625 4.48L68.6585 4.432C68.8345 4.416 68.9945 4.408 69.1385 4.408C69.2985 4.392 69.4585 4.384 69.6185 4.384C70.4505 4.384 71.1305 4.536 71.6585 4.84C72.2025 5.144 72.6025 5.664 72.8585 6.4C73.1305 7.136 73.2665 8.168 73.2665 9.496C73.2665 11.384 72.8745 12.768 72.0905 13.648C71.3065 14.512 70.2425 15 68.8985 15.112L67.9625 15.184V4.48ZM70.6025 14.44C71.4185 14.088 72.0265 13.52 72.4265 12.736C72.8265 11.936 73.0265 10.856 73.0265 9.496C73.0265 7.8 72.7865 6.584 72.3065 5.848C72.2425 5.832 72.1785 5.824 72.1145 5.824C72.0505 5.824 71.9865 5.824 71.9225 5.824C71.7785 5.824 71.6345 5.832 71.4905 5.848C71.3625 5.848 71.2265 5.856 71.0825 5.872L70.6025 5.896V14.44ZM80.4933 18.928V5.728L82.1253 5.608L80.4453 4.768V0.688L84.4533 0.352L86.8533 1.552V5.632L85.1493 5.776L86.7813 6.592V19.768L82.8933 20.104L80.4933 18.928ZM80.6853 0.904V4.504L84.2133 4.216V0.615999L80.6853 0.904ZM80.7333 5.944V18.664L84.1413 18.376V5.656L80.7333 5.944ZM100.682 19.432C100.17 19.64 99.6418 19.744 99.0978 19.744C98.6018 19.744 98.1458 19.672 97.7298 19.528C97.3138 19.4 96.9938 19.272 96.7698 19.144C96.0658 19.992 95.0338 20.48 93.6738 20.608C93.5458 20.624 93.4178 20.632 93.2898 20.632C93.1618 20.632 93.0338 20.632 92.9058 20.632C91.9138 20.632 91.0018 20.456 90.1698 20.104C89.3378 19.768 88.6658 19.256 88.1538 18.568C87.6578 17.864 87.4098 17 87.4098 15.976C87.4098 14.872 87.7138 13.992 88.3218 13.336C88.9458 12.68 89.8738 12.056 91.1058 11.464L89.8818 11.056L87.4818 9.856C87.8818 8.464 88.5298 7.416 89.4258 6.712C90.3378 6.008 91.3698 5.6 92.5218 5.488C92.6658 5.472 92.8098 5.464 92.9538 5.464C93.0978 5.448 93.2338 5.44 93.3618 5.44C94.5138 5.44 95.5618 5.656 96.5058 6.088C97.4498 6.504 98.2018 7.104 98.7618 7.888C99.3218 8.656 99.6018 9.56 99.6018 10.6V15.16L101.066 15.88L100.682 19.432ZM98.3778 15.088C97.9938 15.264 97.7058 15.352 97.5138 15.352C97.1458 15.352 96.9618 15.112 96.9618 14.632V9.4C96.9618 6.936 95.7218 5.704 93.2418 5.704C93.1298 5.704 93.0178 5.704 92.9058 5.704C92.7938 5.704 92.6738 5.712 92.5458 5.728C91.4418 5.84 90.4578 6.224 89.5938 6.88C88.7298 7.536 88.1218 8.488 87.7698 9.736L90.4578 10.624C90.6338 10.08 90.8738 9.64 91.1778 9.304C91.4978 8.968 91.8578 8.784 92.2578 8.752C92.3058 8.752 92.3538 8.752 92.4018 8.752C92.4498 8.736 92.4898 8.728 92.5218 8.728C92.8898 8.728 93.1698 8.816 93.3618 8.992C93.5538 9.168 93.6498 9.408 93.6498 9.712C93.6498 10.048 93.5458 10.32 93.3378 10.528C93.1298 10.72 92.8418 10.904 92.4738 11.08L91.3938 11.584C90.1618 12.16 89.2258 12.768 88.5858 13.408C87.9618 14.032 87.6498 14.888 87.6498 15.976C87.6498 18.12 88.6578 19.192 90.6738 19.192C90.7698 19.192 90.8658 19.192 90.9618 19.192C91.0578 19.192 91.1538 19.184 91.2498 19.168C92.0178 19.104 92.6818 18.92 93.2418 18.616C93.8018 18.312 94.2258 17.88 94.5138 17.32C94.6258 17.656 94.8658 17.92 95.2338 18.112C95.6018 18.304 96.0338 18.4 96.5298 18.4C97.0578 18.4 97.5618 18.296 98.0418 18.088L98.3778 15.088ZM91.9218 16.384C91.6498 16.384 91.4258 16.312 91.2498 16.168C91.0738 16.008 90.9858 15.784 90.9858 15.496C90.9858 14.808 91.3378 14.296 92.0418 13.96L92.5218 13.72C92.7458 13.608 92.9618 13.504 93.1698 13.408C93.3938 13.296 93.5618 13.176 93.6738 13.048V14.704C93.5938 15.2 93.4018 15.6 93.0978 15.904C92.7938 16.192 92.4578 16.352 92.0898 16.384H91.9218ZM101.223 19.072V5.896L105.087 5.536L105.687 5.824C106.167 5.344 106.727 5.08 107.367 5.032H107.679C107.951 5.032 108.207 5.056 108.447 5.104C108.687 5.136 108.919 5.176 109.143 5.224L111.543 6.424L111.999 10.552C111.263 10.264 110.639 10.12 110.127 10.12C110.047 10.12 109.959 10.12 109.863 10.12C109.783 10.12 109.703 10.128 109.623 10.144C109.239 10.176 108.887 10.32 108.567 10.576C108.247 10.832 107.991 11.16 107.799 11.56C107.623 11.944 107.535 12.344 107.535 12.76V19.912L103.623 20.272L101.223 19.072ZM104.895 11.56C104.895 11.096 104.999 10.656 105.207 10.24C105.415 9.808 105.695 9.456 106.047 9.184C106.399 8.896 106.783 8.736 107.199 8.704C107.295 8.688 107.391 8.68 107.487 8.68C107.583 8.68 107.671 8.68 107.751 8.68C108.039 8.68 108.303 8.712 108.543 8.776C108.799 8.824 109.055 8.896 109.311 8.992L108.903 5.44C108.759 5.408 108.583 5.376 108.375 5.344C108.167 5.296 107.935 5.272 107.679 5.272H107.391C106.831 5.32 106.311 5.576 105.831 6.04C105.367 6.488 105.063 7.064 104.919 7.768H104.847V5.8L101.463 6.112V18.832L104.895 18.52V11.56ZM111.018 21.376C111.722 20.768 112.37 20.136 112.962 19.48C113.554 18.84 114.034 18.248 114.402 17.704L110.418 6.088L114.69 5.704L117.09 6.904L117.834 9.4C117.978 8.76 118.098 8.152 118.194 7.576C118.306 7 118.418 6.36 118.53 5.656L122.49 5.296L124.89 6.496C124.458 9.104 123.906 11.48 123.234 13.624C122.562 15.768 121.69 17.752 120.618 19.576C119.546 21.416 118.202 23.176 116.586 24.856L114.186 23.656L111.018 21.376ZM114.138 23.32C115.706 21.704 117.01 20.008 118.05 18.232C119.09 16.44 119.938 14.504 120.594 12.424C121.25 10.344 121.778 8.064 122.178 5.584L118.722 5.896C118.514 7.352 118.258 8.736 117.954 10.048C117.65 11.344 117.282 12.584 116.85 13.768L114.498 5.968L110.754 6.304L114.666 17.752C114.298 18.312 113.81 18.92 113.202 19.576C112.61 20.248 112.01 20.84 111.402 21.352L114.138 23.32Z" fill="#2D2D2D"/>
</svg>
