<svg width="103" height="26" viewBox="0 0 103 26" fill="none" xmlns="http://www.w3.org/2000/svg">
<path d="M14.552 17.272C14.1787 17.272 13.8213 17.2133 13.48 17.096C13.1493 16.9893 12.8347 16.808 12.536 16.552C12.248 16.2853 11.9813 15.944 11.736 15.528C11.5013 15.112 11.2933 14.6 11.112 13.992C10.9947 13.6293 10.888 13.2827 10.792 12.952C10.7067 12.6213 10.6213 12.3013 10.536 11.992C10.4613 11.6827 10.3867 11.3733 10.312 11.064C10.2373 10.7547 10.168 10.4453 10.104 10.136C9.80533 10.104 9.56 9.99733 9.368 9.816C9.18667 9.63467 9.096 9.42667 9.096 9.192C9.096 8.936 9.18133 8.71733 9.352 8.536C9.52267 8.35467 9.77333 8.264 10.104 8.264C10.3493 8.264 10.5627 8.31733 10.744 8.424C10.9253 8.53067 11.08 8.66933 11.208 8.84C11.8693 8.73333 12.488 8.56267 13.064 8.328C13.6507 8.08267 14.1627 7.77867 14.6 7.416C15.048 7.04267 15.3947 6.62133 15.64 6.152C15.896 5.672 16.024 5.13867 16.024 4.552C16.024 4.136 15.928 3.77333 15.736 3.464C15.544 3.15467 15.272 2.89867 14.92 2.696C14.568 2.48267 14.1413 2.32267 13.64 2.216C13.1387 2.10933 12.5733 2.056 11.944 2.056C11.08 2.056 10.264 2.14667 9.496 2.328C8.728 2.49867 8.024 2.74933 7.384 3.08C6.744 3.41067 6.17867 3.80533 5.688 4.264C5.528 4.424 5.36267 4.46667 5.192 4.392C5.032 4.31733 4.904 4.21067 4.808 4.072C4.712 3.93333 4.66933 3.8 4.68 3.672C4.70133 3.544 4.776 3.416 4.904 3.288C5.32 2.89333 5.77867 2.54133 6.28 2.232C6.792 1.912 7.34667 1.64533 7.944 1.432C8.552 1.21867 9.19733 1.05333 9.88 0.935999C10.5733 0.818665 11.2933 0.759998 12.04 0.759998C12.9787 0.759998 13.7893 0.855999 14.472 1.048C15.1547 1.22933 15.72 1.49067 16.168 1.832C16.616 2.16267 16.9467 2.55733 17.16 3.016C17.384 3.47467 17.496 3.98133 17.496 4.536C17.496 5.13333 17.3947 5.688 17.192 6.2C16.9893 6.712 16.7013 7.176 16.328 7.592C15.9653 8.008 15.5333 8.376 15.032 8.696C14.5307 9.016 13.9707 9.288 13.352 9.512C12.744 9.72533 12.104 9.896 11.432 10.024C11.4853 10.2907 11.544 10.552 11.608 10.808C11.672 11.0533 11.7413 11.3147 11.816 11.592C11.8907 11.8693 11.976 12.1787 12.072 12.52C12.1787 12.8613 12.296 13.256 12.424 13.704C12.552 14.12 12.6907 14.4827 12.84 14.792C13 15.0907 13.1813 15.336 13.384 15.528C13.5867 15.7093 13.8213 15.848 14.088 15.944C14.3547 16.0293 14.6533 16.072 14.984 16.072C15.1867 16.072 15.3147 16.136 15.368 16.264C15.4213 16.3813 15.4213 16.52 15.368 16.68C15.3147 16.8293 15.2133 16.9627 15.064 17.08C14.9253 17.208 14.7547 17.272 14.552 17.272ZM3.144 17.272C2.74933 17.272 2.376 17.1867 2.024 17.016C1.68267 16.856 1.38933 16.648 1.144 16.392C0.909333 16.1253 0.738667 15.8373 0.632 15.528C0.557333 15.3467 0.546667 15.192 0.6 15.064C0.653333 14.936 0.76 14.8347 0.92 14.76C1.10133 14.6747 1.25067 14.6587 1.368 14.712C1.48533 14.7547 1.608 14.8613 1.736 15.032C1.87467 15.2347 2.024 15.4053 2.184 15.544C2.344 15.672 2.51467 15.768 2.696 15.832C2.888 15.8853 3.08533 15.912 3.288 15.912C3.71467 15.912 4.072 15.7467 4.36 15.416C4.648 15.0853 4.93067 14.488 5.208 13.624L8.28 4.008C8.33333 3.85867 8.424 3.752 8.552 3.688C8.69067 3.61333 8.87733 3.576 9.112 3.576C9.35733 3.576 9.53333 3.61333 9.64 3.688C9.74667 3.752 9.77333 3.87467 9.72 4.056L6.696 13.496C6.42933 14.3173 6.13067 15.0107 5.8 15.576C5.48 16.1413 5.10667 16.568 4.68 16.856C4.25333 17.1333 3.74133 17.272 3.144 17.272ZM14.6049 17.272C14.4022 17.272 14.2742 17.208 14.2209 17.08C14.1569 16.9627 14.1515 16.8293 14.2049 16.68C14.2582 16.52 14.3542 16.3813 14.4929 16.264C14.6315 16.136 14.8022 16.072 15.0049 16.072C15.5382 16.072 16.0982 15.9867 16.6849 15.816C17.2609 15.6453 17.8102 15.3947 18.3329 15.064C18.4502 14.9893 18.5622 14.984 18.6689 15.048C18.7755 15.1013 18.8609 15.192 18.9249 15.32C18.9889 15.448 19.0209 15.576 19.0209 15.704C19.0209 15.832 18.9729 15.928 18.8769 15.992C18.3862 16.2907 17.8902 16.536 17.3889 16.728C16.8875 16.92 16.4022 17.0587 15.9329 17.144C15.4635 17.2293 15.0209 17.272 14.6049 17.272ZM18.3009 15.192C18.7169 14.9787 19.1115 14.7333 19.4849 14.456C19.8582 14.168 20.1942 13.8693 20.4929 13.56C20.7489 13.3147 20.9782 13.048 21.1809 12.76C21.3942 12.4613 21.5595 12.1573 21.6769 11.848C21.7942 11.528 21.8529 11.224 21.8529 10.936C21.8529 10.616 21.7835 10.376 21.6449 10.216C21.5062 10.056 21.2822 9.976 20.9729 9.976C20.8235 9.976 20.7115 9.912 20.6369 9.784C20.5729 9.656 20.5462 9.50667 20.5569 9.336C20.5782 9.16533 20.6422 9.016 20.7489 8.888C20.8662 8.76 21.0369 8.696 21.2609 8.696C21.7195 8.696 22.0982 8.78667 22.3969 8.968C22.6955 9.13867 22.9195 9.37333 23.0689 9.672C23.2182 9.96 23.2929 10.2907 23.2929 10.664C23.2929 11.1227 23.2129 11.576 23.0529 12.024C22.8929 12.4613 22.6689 12.8827 22.3809 13.288C22.0929 13.6933 21.7569 14.0773 21.3729 14.44C21.0102 14.792 20.6049 15.1173 20.1569 15.416C19.7195 15.704 19.2662 15.9707 18.7969 16.216L18.3009 15.192ZM20.8822 17.304C20.4236 17.304 20.0182 17.2293 19.6662 17.08C19.3036 16.9413 18.9942 16.744 18.7382 16.488C18.4716 16.232 18.2529 15.9387 18.0822 15.608C17.9009 15.2667 17.7676 14.904 17.6822 14.52C17.5969 14.1253 17.5542 13.7307 17.5542 13.336C17.5542 12.76 17.6396 12.2 17.8102 11.656C17.9702 11.1013 18.2102 10.6 18.5302 10.152C18.8396 9.704 19.2289 9.352 19.6982 9.096C20.1569 8.82933 20.6849 8.696 21.2822 8.696C21.3782 8.696 21.4422 8.76 21.4742 8.888C21.4956 9.016 21.4902 9.16533 21.4582 9.336C21.4156 9.50667 21.3569 9.656 21.2822 9.784C21.1969 9.912 21.1062 9.976 21.0102 9.976C20.7862 9.976 20.5729 10.04 20.3702 10.168C20.1569 10.2853 19.9649 10.4507 19.7943 10.664C19.6236 10.8773 19.4796 11.1227 19.3622 11.4C19.2342 11.6773 19.1382 11.976 19.0742 12.296C18.9996 12.616 18.9622 12.936 18.9622 13.256C18.9622 13.5973 19.0049 13.9387 19.0902 14.28C19.1649 14.6107 19.2876 14.9093 19.4582 15.176C19.6289 15.4427 19.8476 15.656 20.1142 15.816C20.3809 15.976 20.7062 16.056 21.0902 16.056C21.5382 16.056 21.9649 15.9493 22.3702 15.736C22.7649 15.5227 23.1489 15.2187 23.5222 14.824C23.8956 14.4187 24.2689 13.9333 24.6423 13.368C25.0263 12.792 25.4209 12.1467 25.8263 11.432C26.1569 10.8667 26.4609 10.408 26.7383 10.056C27.0156 9.704 27.2716 9.43733 27.5063 9.256C27.7516 9.064 27.9756 8.936 28.1783 8.872C28.3916 8.79733 28.5996 8.76 28.8023 8.76C28.9729 8.76 29.0903 8.824 29.1543 8.952C29.2289 9.06933 29.2609 9.208 29.2503 9.368C29.2396 9.51733 29.1863 9.656 29.0903 9.784C29.0049 9.90133 28.8823 9.96 28.7223 9.96C28.5729 9.96 28.4183 10.024 28.2583 10.152C28.0983 10.2693 27.9223 10.4507 27.7303 10.696C27.5489 10.9307 27.3516 11.2187 27.1383 11.56C26.9356 11.8907 26.7116 12.2693 26.4663 12.696C25.9863 13.5387 25.5169 14.2533 25.0583 14.84C24.5996 15.4267 24.1463 15.9013 23.6982 16.264C23.2396 16.6267 22.7809 16.888 22.3222 17.048C21.8529 17.2187 21.3729 17.304 20.8822 17.304ZM33.2503 17.272C32.8769 17.272 32.5569 17.208 32.2903 17.08C32.0236 16.952 31.8156 16.7707 31.6663 16.536C31.5276 16.2907 31.4529 16.0027 31.4423 15.672C31.4316 15.3413 31.4903 14.968 31.6183 14.552L32.6103 11.496C32.7169 11.1653 32.7489 10.888 32.7063 10.664C32.6636 10.4293 32.5463 10.2533 32.3542 10.136C32.1729 10.0187 31.9169 9.96 31.5863 9.96C31.2769 9.96 30.9676 10.0187 30.6583 10.136C30.3489 10.2427 30.0449 10.4027 29.7463 10.616C29.4476 10.8293 29.1703 11.0853 28.9143 11.384C28.6583 11.672 28.4236 11.9973 28.2103 12.36L26.7703 16.824C26.7276 16.9627 26.6476 17.064 26.5303 17.128C26.4236 17.2027 26.2476 17.24 26.0023 17.24C25.8316 17.24 25.6716 17.2027 25.5223 17.128C25.3836 17.0533 25.3463 16.9147 25.4103 16.712L27.3303 10.744C27.4156 10.488 27.4316 10.296 27.3783 10.168C27.3249 10.0293 27.1969 9.96 26.9943 9.96C26.8343 9.96 26.7169 9.90133 26.6423 9.784C26.5783 9.656 26.5463 9.51733 26.5463 9.368C26.5569 9.208 26.6049 9.06933 26.6903 8.952C26.7863 8.824 26.9143 8.76 27.0743 8.76C27.3409 8.76 27.5756 8.79733 27.7783 8.872C27.9916 8.936 28.1676 9.03733 28.3063 9.176C28.4449 9.304 28.5516 9.46933 28.6263 9.672C28.7009 9.864 28.7383 10.0827 28.7383 10.328V10.392C28.9836 10.1253 29.2343 9.89067 29.4903 9.688C29.7569 9.47467 30.0289 9.29333 30.3063 9.144C30.5943 8.99467 30.8876 8.88267 31.1863 8.808C31.4849 8.73333 31.7836 8.696 32.0823 8.696C32.7223 8.696 33.2023 8.84533 33.5223 9.144C33.8423 9.432 34.0236 9.832 34.0663 10.344C34.1196 10.8453 34.0396 11.4213 33.8263 12.072L32.9783 14.744C32.8183 15.2453 32.7916 15.592 32.8983 15.784C33.0156 15.976 33.2663 16.072 33.6503 16.072C33.7996 16.072 33.9009 16.136 33.9543 16.264C34.0183 16.3813 34.0343 16.52 34.0023 16.68C33.9809 16.8293 33.9063 16.9627 33.7783 17.08C33.6503 17.208 33.4743 17.272 33.2503 17.272ZM33.2455 17.272C33.0962 17.272 32.9895 17.208 32.9255 17.08C32.8615 16.9627 32.8455 16.8293 32.8775 16.68C32.9095 16.52 32.9895 16.3813 33.1175 16.264C33.2455 16.136 33.4215 16.072 33.6455 16.072C33.9228 16.072 34.2002 16.0293 34.4775 15.944C34.7548 15.848 35.0215 15.7093 35.2775 15.528C35.5335 15.3467 35.7628 15.128 35.9655 14.872C36.1682 14.6053 36.3282 14.3013 36.4455 13.96C36.4988 13.8 36.5895 13.72 36.7175 13.72C36.8455 13.7093 36.9575 13.7573 37.0535 13.864C37.1602 13.96 37.1975 14.0827 37.1655 14.232C37.0588 14.6907 36.8775 15.1067 36.6215 15.48C36.3655 15.8533 36.0562 16.1733 35.6935 16.44C35.3415 16.7067 34.9575 16.9093 34.5415 17.048C34.1148 17.1973 33.6828 17.272 33.2455 17.272ZM39.5015 17.304C38.8402 17.304 38.2802 17.1707 37.8215 16.904C37.3628 16.6373 37.0162 16.2693 36.7815 15.8C36.5575 15.32 36.4455 14.7813 36.4455 14.184C36.4455 13.6187 36.5575 13.0373 36.7815 12.44C37.0055 11.8427 37.3362 11.2933 37.7735 10.792C38.2108 10.28 38.7442 9.86933 39.3735 9.56C40.0028 9.25067 40.7228 9.096 41.5335 9.096L41.5015 9.8C40.8828 9.8 40.3442 9.93867 39.8855 10.216C39.4375 10.4827 39.0642 10.8347 38.7655 11.272C38.4668 11.7093 38.2428 12.1733 38.0935 12.664C37.9548 13.1547 37.8855 13.624 37.8855 14.072C37.8855 14.488 37.9548 14.8453 38.0935 15.144C38.2428 15.432 38.4508 15.6507 38.7175 15.8C38.9842 15.9493 39.2988 16.024 39.6615 16.024C40.1842 16.024 40.6428 15.8853 41.0375 15.608C41.4322 15.3307 41.7628 14.9787 42.0295 14.552C42.2962 14.1147 42.4988 13.6613 42.6375 13.192C42.7762 12.712 42.8455 12.2693 42.8455 11.864C42.8455 11.448 42.7762 11.1013 42.6375 10.824C42.4988 10.5467 42.2962 10.3387 42.0295 10.2C41.7735 10.0507 41.4695 9.976 41.1175 9.976C40.6802 9.976 40.3282 10.0507 40.0615 10.2C39.7948 10.3493 39.6615 10.5413 39.6615 10.776C39.6615 10.9253 39.7148 11.0533 39.8215 11.16C39.9282 11.2667 40.0775 11.3467 40.2695 11.4C40.4722 11.4533 40.7175 11.48 41.0055 11.48C41.4002 11.48 41.8375 11.416 42.3175 11.288C42.7975 11.1493 43.3148 10.952 43.8695 10.696C44.4348 10.4293 45.0322 10.104 45.6615 9.72C45.8215 9.624 45.9548 9.59733 46.0615 9.64C46.1682 9.68267 46.2428 9.76267 46.2855 9.88C46.3388 9.99733 46.3548 10.1253 46.3335 10.264C46.3122 10.392 46.2428 10.4987 46.1255 10.584C45.4428 11.0427 44.7922 11.4213 44.1735 11.72C43.5655 12.008 42.9842 12.2213 42.4295 12.36C41.8748 12.488 41.3362 12.552 40.8135 12.552C40.2908 12.552 39.8482 12.4827 39.4855 12.344C39.1228 12.1947 38.8455 11.9973 38.6535 11.752C38.4615 11.496 38.3655 11.2027 38.3655 10.872C38.3655 10.456 38.5042 10.0827 38.7815 9.752C39.0588 9.42133 39.4162 9.16533 39.8535 8.984C40.3015 8.792 40.7708 8.696 41.2615 8.696C41.9228 8.696 42.4775 8.824 42.9255 9.08C43.3842 9.32533 43.7255 9.67733 43.9495 10.136C44.1842 10.584 44.3015 11.1067 44.3015 11.704C44.3015 12.1307 44.2375 12.6 44.1095 13.112C43.9922 13.6133 43.8055 14.1147 43.5495 14.616C43.3042 15.1067 42.9895 15.5547 42.6055 15.96C42.2215 16.3653 41.7682 16.6907 41.2455 16.936C40.7335 17.1813 40.1522 17.304 39.5015 17.304ZM52.5958 17.288C52.2118 17.288 51.8651 17.2133 51.5558 17.064C51.2464 16.9253 51.0011 16.728 50.8198 16.472C50.6384 16.216 50.5478 15.9227 50.5478 15.592C50.5478 15.1867 50.6544 14.8293 50.8678 14.52C51.0811 14.2 51.3691 13.9493 51.7318 13.768C52.1051 13.5867 52.5318 13.496 53.0118 13.496C53.4278 13.496 53.8224 13.5547 54.1958 13.672C54.5798 13.7787 54.9478 13.9227 55.2998 14.104C55.6624 14.2853 56.0251 14.4773 56.3878 14.68C56.7504 14.8827 57.1238 15.0747 57.5078 15.256C57.8918 15.4373 58.2971 15.5867 58.7238 15.704C59.1504 15.8107 59.6144 15.864 60.1158 15.864C60.6491 15.864 61.1771 15.7733 61.6998 15.592C62.2224 15.4 62.7238 15.1333 63.2038 14.792C63.6838 14.44 64.1211 14.024 64.5158 13.544C64.9211 13.0533 65.2678 12.504 65.5558 11.896C65.8544 11.288 66.0891 10.632 66.2598 9.928C66.4304 9.21333 66.5158 8.46667 66.5158 7.688C66.5158 6.80267 66.3718 6.01333 66.0838 5.32C65.7958 4.62667 65.3798 4.04 64.8358 3.56C64.2918 3.08 63.6411 2.71733 62.8838 2.472C62.1264 2.216 61.2891 2.088 60.3718 2.088C59.7744 2.088 59.2304 2.12533 58.7398 2.2C58.2491 2.264 57.8118 2.37067 57.4278 2.52C57.0438 2.65867 56.6971 2.84 56.3878 3.064C56.0784 3.27733 55.7958 3.53867 55.5398 3.848C55.2838 4.15733 55.0491 4.50933 54.8358 4.904C54.7291 5.07467 54.6118 5.17067 54.4838 5.192C54.3558 5.21333 54.1958 5.18667 54.0038 5.112C53.8331 5.03733 53.7318 4.93067 53.6998 4.792C53.6678 4.64267 53.6838 4.49333 53.7478 4.344C53.9504 3.896 54.1904 3.49067 54.4678 3.128C54.7451 2.75467 55.0704 2.424 55.4438 2.136C55.8171 1.83733 56.2438 1.58667 56.7238 1.384C57.2038 1.18133 57.7424 1.02667 58.3398 0.92C58.9371 0.813332 59.6038 0.759998 60.3398 0.759998C61.4918 0.759998 62.5371 0.914665 63.4758 1.224C64.4144 1.53333 65.2198 1.98133 65.8918 2.568C66.5638 3.15467 67.0758 3.86933 67.4278 4.712C67.7904 5.55467 67.9718 6.51467 67.9718 7.592C67.9718 8.50933 67.8704 9.384 67.6678 10.216C67.4651 11.0373 67.1824 11.8053 66.8198 12.52C66.4571 13.2347 66.0251 13.88 65.5238 14.456C65.0224 15.032 64.4731 15.5227 63.8758 15.928C63.2784 16.3333 62.6491 16.648 61.9878 16.872C61.3371 17.0853 60.6704 17.192 59.9878 17.192C59.3478 17.192 58.7558 17.112 58.2118 16.952C57.6678 16.792 57.1558 16.5947 56.6758 16.36C56.2064 16.1147 55.7584 15.8693 55.3318 15.624C54.9051 15.3787 54.4998 15.176 54.1158 15.016C53.7318 14.856 53.3584 14.776 52.9958 14.776C52.6438 14.776 52.3931 14.8507 52.2438 15C52.1051 15.1387 52.0358 15.2933 52.0358 15.464C52.0358 15.624 52.0998 15.7573 52.2278 15.864C52.3558 15.96 52.5478 16.008 52.8038 16.008C53.0811 16.008 53.3264 15.9227 53.5398 15.752C53.7638 15.5707 53.9718 15.2933 54.1638 14.92C54.3558 14.536 54.5531 14.0293 54.7558 13.4L57.7958 3.944C57.8491 3.79467 57.9398 3.68267 58.0677 3.608C58.2064 3.53333 58.3931 3.496 58.6278 3.496C58.8731 3.496 59.0491 3.53333 59.1558 3.608C59.2731 3.68267 59.2998 3.80533 59.2358 3.976L56.0998 13.592C55.8118 14.4773 55.4971 15.192 55.1558 15.736C54.8251 16.28 54.4518 16.6747 54.0358 16.92C53.6198 17.1653 53.1398 17.288 52.5958 17.288ZM70.2018 17.272C69.8284 17.272 69.5031 17.208 69.2258 17.08C68.9591 16.952 68.7511 16.7707 68.6018 16.536C68.4631 16.2907 68.3831 16.0027 68.3618 15.672C68.3511 15.3413 68.4151 14.968 68.5538 14.552L70.2818 9.272C70.3458 9.05867 70.4258 8.92 70.5218 8.856C70.6284 8.792 70.7884 8.76 71.0018 8.76C71.3324 8.76 71.5404 8.81333 71.6258 8.92C71.7218 9.016 71.7324 9.17067 71.6578 9.384L69.9138 14.744C69.7431 15.2453 69.7164 15.592 69.8338 15.784C69.9618 15.976 70.2178 16.072 70.6018 16.072C70.7511 16.072 70.8524 16.136 70.9058 16.264C70.9698 16.3813 70.9858 16.52 70.9538 16.68C70.9324 16.8293 70.8578 16.9627 70.7298 17.08C70.6018 17.208 70.4258 17.272 70.2018 17.272ZM71.9938 6.296C71.7804 6.296 71.5938 6.22667 71.4338 6.088C71.2844 5.94933 71.2098 5.74667 71.2098 5.48C71.2098 5.192 71.3058 4.92 71.4978 4.664C71.6898 4.408 71.9831 4.28 72.3778 4.28C72.5911 4.28 72.7724 4.34933 72.9218 4.488C73.0818 4.616 73.1618 4.81867 73.1618 5.096C73.1618 5.384 73.0658 5.656 72.8738 5.912C72.6924 6.168 72.3991 6.296 71.9938 6.296ZM70.1986 17.272C70.0493 17.272 69.9426 17.208 69.8786 17.08C69.8146 16.9627 69.7986 16.8293 69.8306 16.68C69.8626 16.52 69.9426 16.3813 70.0706 16.264C70.1986 16.136 70.3746 16.072 70.5986 16.072C70.876 16.072 71.1533 16.0293 71.4306 15.944C71.708 15.848 71.9746 15.7093 72.2306 15.528C72.4866 15.3467 72.716 15.128 72.9186 14.872C73.1213 14.6053 73.2813 14.3013 73.3986 13.96C73.452 13.8 73.5426 13.72 73.6706 13.72C73.7986 13.7093 73.9106 13.7573 74.0066 13.864C74.1133 13.96 74.1506 14.0827 74.1186 14.232C74.012 14.6907 73.8306 15.1067 73.5746 15.48C73.3186 15.8533 73.0093 16.1733 72.6466 16.44C72.2946 16.7067 71.9106 16.9093 71.4946 17.048C71.068 17.1973 70.636 17.272 70.1986 17.272ZM75.6386 17.272C75.148 17.272 74.7266 17.1653 74.3746 16.952C74.0226 16.7387 73.7506 16.4293 73.5586 16.024C73.3773 15.6187 73.2866 15.1387 73.2866 14.584C73.2866 14.1147 73.3506 13.6133 73.4786 13.08C73.6066 12.5467 73.7986 12.024 74.0546 11.512C74.3213 10.9893 74.6573 10.5147 75.0626 10.088C75.468 9.66133 75.948 9.32533 76.5026 9.08C77.0573 8.824 77.692 8.696 78.4066 8.696C78.8866 8.696 79.34 8.792 79.7666 8.984C80.1933 9.16533 80.5773 9.39467 80.9186 9.672L80.7266 10.776C80.3 10.4667 79.916 10.2533 79.5746 10.136C79.2333 10.0187 78.8813 9.96 78.5186 9.96C77.9533 9.96 77.4573 10.0613 77.0306 10.264C76.6146 10.4667 76.2573 10.7387 75.9586 11.08C75.66 11.4107 75.42 11.7787 75.2386 12.184C75.0573 12.5787 74.924 12.9733 74.8386 13.368C74.764 13.7627 74.7266 14.12 74.7266 14.44C74.7266 14.7813 74.7746 15.0693 74.8706 15.304C74.9773 15.528 75.132 15.6987 75.3346 15.816C75.5373 15.9333 75.788 15.992 76.0866 15.992C76.46 15.992 76.8226 15.8907 77.1746 15.688C77.5373 15.4747 77.8893 15.1707 78.2306 14.776C78.572 14.3813 78.8866 13.9173 79.1746 13.384L79.4466 14.136C79.052 15.0107 78.62 15.6773 78.1506 16.136C77.6813 16.584 77.2226 16.8827 76.7746 17.032C76.3373 17.192 75.9586 17.272 75.6386 17.272ZM80.3586 17.272C79.9853 17.272 79.6653 17.208 79.3986 17.08C79.132 16.952 78.924 16.7707 78.7746 16.536C78.636 16.2907 78.5613 16.0027 78.5506 15.672C78.54 15.3413 78.5986 14.968 78.7266 14.552L80.4546 9.272C80.5293 9.05867 80.6146 8.92 80.7106 8.856C80.8173 8.792 80.972 8.76 81.1746 8.76C81.5053 8.76 81.7133 8.81333 81.7986 8.92C81.8946 9.016 81.9053 9.17067 81.8306 9.384L80.0866 14.744C79.916 15.2453 79.8893 15.592 80.0066 15.784C80.1346 15.976 80.3853 16.072 80.7586 16.072C80.908 16.072 81.0093 16.136 81.0626 16.264C81.1266 16.3813 81.1426 16.52 81.1106 16.68C81.0893 16.8293 81.0146 16.9627 80.8866 17.08C80.7586 17.208 80.5826 17.272 80.3586 17.272ZM80.3549 17.272C80.1522 17.272 80.0242 17.208 79.9709 17.08C79.9069 16.9627 79.9015 16.8293 79.9549 16.68C80.0082 16.52 80.1042 16.3813 80.2429 16.264C80.3815 16.136 80.5522 16.072 80.7549 16.072C81.1389 16.072 81.5389 15.9173 81.9549 15.608C82.3602 15.2987 82.7655 14.8667 83.1709 14.312C83.5762 13.7573 83.9655 13.112 84.3389 12.376C84.7122 11.6293 85.0482 10.824 85.3469 9.96C85.3895 9.84267 85.4695 9.77333 85.5869 9.752C85.7042 9.73067 85.8269 9.74133 85.9549 9.784C86.0829 9.82667 86.1842 9.896 86.2589 9.992C86.3335 10.0773 86.3495 10.184 86.3069 10.312C85.9122 11.3893 85.5069 12.36 85.0909 13.224C84.6855 14.0773 84.2429 14.808 83.7629 15.416C83.2935 16.0133 82.7815 16.472 82.2269 16.792C81.6615 17.112 81.0375 17.272 80.3549 17.272ZM89.4269 17.272C89.0642 17.272 88.7549 17.208 88.4989 17.08C88.2429 16.952 88.0455 16.776 87.9069 16.552C87.7682 16.328 87.6882 16.0613 87.6669 15.752C87.6455 15.4427 87.6935 15.1067 87.8109 14.744C87.8749 14.5093 87.9762 14.2373 88.1149 13.928C88.2535 13.6187 88.4029 13.2933 88.5629 12.952C88.7229 12.6107 88.8722 12.264 89.0109 11.912C89.1602 11.56 89.2775 11.224 89.3629 10.904C89.4482 10.5947 89.4429 10.392 89.3469 10.296C89.2509 10.1893 89.1175 10.136 88.9469 10.136C88.7015 10.136 88.4135 10.168 88.0829 10.232C87.7629 10.296 87.4269 10.3707 87.0749 10.456C86.7335 10.5307 86.4135 10.6 86.1149 10.664C85.8162 10.728 85.5762 10.76 85.3949 10.76C85.0109 10.76 84.6642 10.696 84.3549 10.568C84.0562 10.4293 83.8215 10.232 83.6509 9.976C83.4802 9.72 83.3949 9.416 83.3949 9.064C83.3949 8.552 83.5389 8.14133 83.8269 7.832C84.1255 7.512 84.5149 7.352 84.9949 7.352C85.3789 7.352 85.6775 7.45333 85.8909 7.656C86.1042 7.85867 86.2322 8.12533 86.2749 8.456C86.3282 8.776 86.2909 9.12267 86.1629 9.496C86.2589 9.496 86.4295 9.464 86.6749 9.4C86.9202 9.32533 87.2029 9.24 87.5229 9.144C87.8535 9.048 88.1895 8.968 88.5309 8.904C88.8722 8.82933 89.1762 8.792 89.4429 8.792C89.7522 8.792 90.0242 8.86133 90.2589 9C90.5042 9.13867 90.6749 9.37333 90.7709 9.704C90.8669 10.0347 90.8402 10.488 90.6909 11.064C90.6055 11.3627 90.4882 11.6827 90.3389 12.024C90.2002 12.3653 90.0509 12.712 89.8909 13.064C89.7309 13.4053 89.5762 13.736 89.4269 14.056C89.2882 14.376 89.1815 14.664 89.1069 14.92C88.9789 15.336 88.9735 15.6347 89.0909 15.816C89.2082 15.9867 89.4535 16.072 89.8269 16.072C89.9762 16.072 90.0829 16.136 90.1469 16.264C90.2109 16.3813 90.2269 16.52 90.1949 16.68C90.1629 16.8293 90.0829 16.9627 89.9549 17.08C89.8269 17.208 89.6509 17.272 89.4269 17.272ZM85.1709 9.704C85.2562 9.448 85.2989 9.21333 85.2989 9C85.3095 8.78667 85.2775 8.616 85.2029 8.488C85.1389 8.36 85.0269 8.296 84.8669 8.296C84.7175 8.296 84.6002 8.35467 84.5149 8.472C84.4295 8.58933 84.3869 8.74933 84.3869 8.952C84.3869 9.16533 84.4562 9.34667 84.5949 9.496C84.7442 9.63467 84.9362 9.704 85.1709 9.704ZM89.465 17.272C89.369 17.272 89.3103 17.208 89.289 17.08C89.257 16.9627 89.2623 16.8293 89.305 16.68C89.3477 16.52 89.417 16.3813 89.513 16.264C89.609 16.136 89.721 16.072 89.849 16.072C90.0197 16.072 90.2063 16.0347 90.409 15.96C90.6117 15.8853 90.8303 15.7467 91.065 15.544C91.289 15.3413 91.529 15.0533 91.785 14.68C92.041 14.296 92.3023 13.7947 92.569 13.176C92.9743 12.248 93.3477 11.496 93.689 10.92C94.0303 10.344 94.3503 9.90133 94.649 9.592C94.9583 9.272 95.2517 9.05333 95.529 8.936C95.817 8.81867 96.0943 8.76 96.361 8.76C96.4783 8.76 96.553 8.824 96.585 8.952C96.617 9.06933 96.6223 9.208 96.601 9.368C96.5903 9.51733 96.553 9.656 96.489 9.784C96.4357 9.90133 96.3663 9.96 96.281 9.96C96.0997 9.96 95.913 10.024 95.721 10.152C95.5397 10.28 95.3477 10.4773 95.145 10.744C94.9423 11 94.7237 11.336 94.489 11.752C94.265 12.168 94.0197 12.664 93.753 13.24C93.369 14.0827 93.0063 14.7707 92.665 15.304C92.3343 15.8267 91.9983 16.232 91.657 16.52C91.3263 16.808 90.985 17.0053 90.633 17.112C90.2703 17.2187 89.881 17.272 89.465 17.272ZM99.1766 17.304C99.4326 17.1547 99.694 17.0107 99.9606 16.872C100.238 16.7333 100.505 16.6053 100.761 16.488C101.017 16.36 101.241 16.2587 101.433 16.184C101.593 16.12 101.715 16.1307 101.801 16.216C101.897 16.3013 101.955 16.4187 101.977 16.568C102.009 16.7067 102.003 16.8507 101.961 17C101.929 17.1387 101.849 17.2347 101.721 17.288C101.507 17.384 101.289 17.4853 101.065 17.592C100.841 17.7093 100.611 17.8213 100.377 17.928C100.153 18.0453 99.9286 18.168 99.7046 18.296C99.4806 18.424 99.2566 18.5467 99.0326 18.664L99.1766 17.304ZM94.5686 25.304C93.9073 25.304 93.3846 25.1173 93.0006 24.744C92.6166 24.3813 92.4246 23.9173 92.4246 23.352C92.4246 22.8507 92.526 22.3867 92.7286 21.96C92.942 21.5333 93.2406 21.1227 93.6246 20.728C94.0086 20.344 94.4566 19.9707 94.9686 19.608C95.4913 19.256 96.062 18.9093 96.6806 18.568C96.862 18.4827 97.038 18.392 97.2086 18.296C97.3793 18.2 97.55 18.104 97.7206 18.008C97.902 17.912 98.078 17.8213 98.2486 17.736L98.8566 15.912C98.6326 16.1253 98.4033 16.3173 98.1686 16.488C97.934 16.6587 97.694 16.8027 97.4486 16.92C97.2033 17.0373 96.9526 17.1227 96.6966 17.176C96.4513 17.24 96.206 17.272 95.9606 17.272C95.3633 17.272 94.8833 17.144 94.5206 16.888C94.1686 16.6213 93.9446 16.2533 93.8486 15.784C93.7526 15.304 93.806 14.7493 94.0086 14.12L95.0646 10.744C95.15 10.488 95.166 10.296 95.1126 10.168C95.0593 10.0293 94.9313 9.96 94.7286 9.96C94.558 9.96 94.4246 9.90133 94.3286 9.784C94.2433 9.656 94.2006 9.51733 94.2006 9.368C94.2113 9.208 94.2646 9.06933 94.3606 8.952C94.4566 8.824 94.606 8.76 94.8086 8.76C95.15 8.76 95.438 8.81867 95.6726 8.936C95.918 9.05333 96.1046 9.224 96.2326 9.448C96.3713 9.66133 96.446 9.92267 96.4566 10.232C96.4673 10.5413 96.414 10.8827 96.2966 11.256L95.4166 14.12C95.278 14.568 95.2193 14.936 95.2406 15.224C95.2726 15.5013 95.3846 15.704 95.5766 15.832C95.7793 15.96 96.0726 16.024 96.4566 16.024C96.7126 16.024 96.9793 15.9707 97.2566 15.864C97.534 15.7573 97.806 15.6027 98.0726 15.4C98.35 15.1973 98.6166 14.9573 98.8726 14.68C99.1286 14.392 99.358 14.072 99.5606 13.72L100.985 9.272C101.059 9.05867 101.145 8.92 101.241 8.856C101.347 8.792 101.502 8.76 101.705 8.76C102.035 8.76 102.243 8.81333 102.329 8.92C102.425 9.016 102.435 9.17067 102.361 9.384L98.5686 21.032C98.3126 21.8107 98.046 22.472 97.7686 23.016C97.502 23.56 97.2033 23.9973 96.8726 24.328C96.5526 24.6693 96.2006 24.9147 95.8166 25.064C95.4433 25.224 95.0273 25.304 94.5686 25.304ZM94.7766 24.072C95.0966 24.072 95.406 23.9547 95.7046 23.72C96.014 23.4853 96.2966 23.1387 96.5526 22.68C96.8086 22.2213 97.0273 21.6613 97.2086 21L97.7526 19.304C97.646 19.3573 97.5446 19.4107 97.4486 19.464C97.3633 19.5173 97.278 19.5653 97.1926 19.608C97.1073 19.6507 97.022 19.6987 96.9366 19.752C96.4673 20.0293 96.0406 20.3067 95.6566 20.584C95.2833 20.8613 94.958 21.1387 94.6806 21.416C94.4033 21.6933 94.19 21.9707 94.0406 22.248C93.902 22.536 93.8326 22.8347 93.8326 23.144C93.8326 23.3573 93.87 23.528 93.9446 23.656C94.03 23.7947 94.142 23.896 94.2806 23.96C94.43 24.0347 94.5953 24.072 94.7766 24.072Z" fill="#2D2D2D"/>
</svg>
